<?xml version="1.0" standalone="no"?>
<!DOCTYPE svg PUBLIC "-//W3C//DTD SVG 20010904//EN"
 "http://www.w3.org/TR/2001/REC-SVG-20010904/DTD/svg10.dtd">
<svg version="1.0" xmlns="http://www.w3.org/2000/svg"
 width="1192.000000pt" height="1192.000000pt" viewBox="0 0 1192.000000 1192.000000"
 preserveAspectRatio="xMidYMid meet">
<metadata>
Created by potrace 1.14, written by Peter Selinger 2001-2017
</metadata>
<g transform="translate(0.000000,1192.000000) scale(0.100000,-0.100000)"
fill="#000000" stroke="none">
<path d="M7084 8250 c-42 -13 -92 -66 -106 -111 -40 -136 94 -258 232 -212 36
12 115 74 110 85 -1 2 1 20 5 41 4 20 4 53 1 72 -7 37 -54 98 -89 116 -28 15
-116 20 -153 9z"/>
<path d="M8693 8239 c-24 -11 -43 -24 -43 -28 0 -4 -10 -18 -22 -30 -15 -17
-22 -39 -24 -79 -3 -60 9 -95 44 -130 23 -24 92 -58 92 -45 0 4 5 2 11 -4 13
-13 75 -6 114 15 34 17 86 72 79 83 -2 4 0 10 6 14 15 9 4 112 -14 140 -51 77
-161 106 -243 64z"/>
<path d="M10925 8210 c-5 -10 -1 -1270 4 -1271 23 -5 281 -4 282 0 4 19 3
1271 -1 1272 -24 4 -283 3 -285 -1z"/>
<path d="M1438 8050 c-2 -8 -3 -264 -2 -567 0 -391 -2 -553 -10 -554 -6 0
-171 -1 -366 -2 l-355 -2 1 -520 c0 -536 4 -644 28 -795 11 -63 55 -251 65
-275 5 -11 15 -40 22 -65 7 -25 16 -49 21 -54 4 -6 8 -15 8 -22 0 -7 9 -33 20
-58 11 -26 20 -50 21 -54 8 -26 120 -231 166 -302 123 -189 312 -399 473 -526
41 -32 77 -61 80 -64 3 -3 12 -9 21 -15 9 -5 47 -30 85 -55 90 -59 90 -59 229
-128 177 -88 408 -165 560 -188 19 -3 56 -9 115 -20 134 -23 438 -22 600 2 81
11 134 21 170 31 14 4 32 7 40 9 60 7 298 90 416 145 96 45 278 148 282 160 2
5 8 9 14 9 23 0 224 166 338 280 113 113 246 274 280 340 7 14 16 27 20 30 10
7 130 240 159 310 13 30 29 69 36 85 15 37 55 157 60 185 2 11 6 24 10 29 7
13 52 235 59 296 12 99 18 180 16 200 0 11 -1 25 -1 30 4 53 5 829 1 834 -3 4
-167 7 -365 7 l-360 0 -3 257 -2 256 -90 -2 c-50 -1 -90 1 -90 5 0 4 -12 3
-27 -1 -16 -4 -41 -5 -57 -2 -16 3 -64 4 -108 1 -43 -3 -78 -2 -78 1 0 4 -18
3 -39 -1 -22 -4 -45 -4 -51 0 -7 4 -24 4 -39 1 -14 -4 -40 -4 -58 0 -18 3 -34
4 -37 1 -3 -3 -35 -5 -71 -4 l-65 1 0 -601 1 -601 -203 -200 c-200 -196 -350
-327 -375 -327 -7 0 -13 -4 -13 -8 0 -7 -42 -32 -53 -32 -1 0 -2 219 -2 488
l0 487 -344 5 -345 5 0 783 c1 430 -2 783 -5 783 -3 1 -185 2 -403 3 -346 1
-397 -1 -400 -14z m2097 -2810 c-3 -5 -12 -10 -18 -10 -7 0 -6 4 3 10 19 12
23 12 15 0z"/>
<path d="M5826 8062 c-10 -2 -16 -14 -17 -30 -1 -34 -1 -1050 0 -1077 1 -19 7
-20 183 -18 307 3 357 8 456 45 171 63 313 215 348 373 25 109 18 274 -15 350
-77 178 -176 262 -396 336 -37 12 -512 30 -559 21z m478 -287 c122 -26 209
-138 207 -268 -1 -78 -5 -99 -32 -153 -34 -72 -123 -137 -204 -151 -16 -3 -61
-6 -99 -7 -61 -2 -69 0 -76 18 -4 12 -4 28 1 37 4 9 6 18 4 20 -4 5 -6 64 -4
149 0 30 0 102 0 160 0 58 0 129 0 158 l2 53 86 -5 c47 -2 99 -7 115 -11z"/>
<path d="M9233 7992 l-31 -3 -4 -71 c-2 -38 0 -75 3 -80 4 -6 4 -19 2 -29 -5
-16 -15 -19 -67 -19 l-62 0 -1 -125 -1 -125 63 0 64 0 1 -37 c0 -21 1 -58 1
-83 1 -25 0 -49 -1 -55 -1 -5 -2 -12 -1 -15 1 -3 3 -48 4 -100 4 -108 30 -182
85 -238 31 -31 98 -70 136 -78 103 -21 198 -24 271 -8 l50 10 3 121 3 120 -66
1 c-99 1 -140 10 -166 38 -23 24 -24 33 -25 172 -1 81 2 149 7 152 4 3 56 5
114 4 l105 -1 1 31 c2 122 0 196 -6 206 -4 6 -26 11 -49 10 -22 -1 -71 -1
-107 -1 l-66 1 1 100 c0 55 -1 100 -4 101 -25 2 -232 3 -257 1z"/>
<path d="M7805 7795 c-69 -14 -105 -29 -155 -65 -42 -30 -98 -92 -117 -127
-38 -74 -58 -227 -39 -308 3 -16 8 -40 11 -53 12 -65 93 -172 166 -218 75 -47
207 -69 300 -49 43 9 116 42 124 55 11 18 24 1 19 -25 -7 -42 -21 -69 -45 -91
-73 -66 -236 -58 -354 17 -45 29 -48 29 -62 12 -41 -53 -133 -179 -133 -183 0
-7 114 -81 150 -97 133 -62 340 -74 470 -28 121 43 182 103 239 235 20 48 22
98 24 505 l2 410 -133 3 -132 3 0 -41 c0 -46 -3 -48 -33 -19 -67 63 -181 87
-302 64z m207 -237 c87 -21 130 -156 82 -251 -59 -116 -204 -123 -284 -15 -35
48 -35 150 0 201 43 62 116 86 202 65z"/>
<path d="M10329 7805 c-3 -2 -31 -6 -64 -9 -72 -7 -104 -15 -175 -49 -56 -27
-145 -92 -154 -114 -3 -6 7 -27 22 -46 15 -19 36 -48 47 -63 11 -15 30 -39 41
-53 l21 -25 42 33 c82 65 196 86 255 47 22 -14 54 -81 43 -92 -2 -2 -69 -6
-148 -8 -167 -4 -233 -23 -299 -87 -103 -100 -83 -280 42 -377 54 -42 191 -62
277 -40 40 10 107 43 134 66 16 14 17 13 17 -19 l0 -34 135 0 134 0 -3 300
c-2 284 -3 303 -25 357 -26 68 -88 137 -150 168 -46 23 -58 26 -131 36 -25 3
-48 8 -51 10 -3 2 -8 2 -10 -1z m73 -554 c10 -2 -1 -50 -17 -75 -22 -33 -61
-50 -111 -50 -53 1 -84 25 -84 64 0 26 21 53 49 62 12 3 142 3 163 -1z"/>
<path d="M7008 7783 c-4 -7 -2 -810 1 -838 1 -7 49 -10 139 -9 75 1 140 2 143
3 3 1 6 192 6 426 l1 425 -144 0 c-78 0 -144 -3 -146 -7z"/>
<path d="M8635 7368 c-1 -281 3 -425 10 -429 5 -3 71 -5 145 -5 l135 1 2 428
2 427 -147 0 -147 0 0 -422z"/>
<path d="M6509 6488 c-5 -9 -9 -24 -9 -32 0 -9 -4 -16 -10 -16 -5 0 -9 -3 -8
-7 1 -5 -11 -35 -27 -68 -16 -33 -29 -62 -30 -65 -2 -7 -42 -93 -104 -223 -28
-59 -51 -113 -51 -120 0 -22 -18 8 -45 78 -15 39 -33 84 -40 100 -7 17 -23 57
-35 90 -12 33 -29 74 -36 92 -8 17 -14 33 -14 36 0 2 -8 22 -17 43 -9 22 -17
41 -18 44 -10 47 -5 46 -178 45 -100 0 -161 -4 -160 -10 2 -15 213 -536 229
-567 8 -16 12 -28 8 -28 -3 0 1 -11 10 -25 9 -13 16 -29 16 -35 0 -6 10 -32
21 -58 30 -66 39 -87 110 -264 l63 -158 46 0 c45 0 47 2 68 44 12 24 22 48 22
53 0 6 6 16 14 22 8 7 18 26 21 42 4 16 11 29 16 29 5 0 8 3 7 8 -2 9 180 382
187 382 7 0 36 -66 34 -76 0 -4 3 -10 8 -13 8 -5 84 -155 87 -171 1 -3 36 -76
78 -162 l78 -158 45 0 c54 0 33 -36 171 305 42 105 94 235 116 290 42 105 61
151 84 199 8 16 14 32 14 36 0 4 8 25 17 46 9 22 18 44 19 49 2 6 21 54 43
108 23 53 41 101 41 105 0 5 -73 8 -162 8 l-161 -1 -38 -100 c-20 -55 -41
-111 -47 -125 -37 -92 -75 -197 -75 -207 0 -7 -4 -13 -9 -13 -4 0 -8 -6 -8
-14 0 -7 -6 -29 -14 -47 l-14 -34 -27 60 c-15 33 -42 92 -61 131 -18 39 -46
100 -62 135 -17 35 -48 103 -70 151 l-41 86 -46 -1 c-33 -2 -50 -7 -56 -19z"/>
<path d="M8491 6335 c0 -139 8 -125 -64 -125 l-64 0 0 -123 1 -123 63 1 63 2
0 -51 c1 -207 5 -315 13 -341 35 -108 90 -169 186 -207 48 -18 76 -22 186 -22
146 0 180 10 167 47 -5 12 -7 33 -5 47 2 24 3 68 2 100 0 8 0 20 1 25 8 37 1
40 -87 39 -90 -2 -126 8 -154 42 -10 13 -14 52 -15 158 0 78 1 146 3 151 2 7
46 10 113 10 108 -1 110 0 111 22 0 13 1 68 2 123 l2 100 -116 0 -116 0 1 95
c1 53 -1 99 -4 103 -3 4 -69 7 -147 7 l-142 0 0 -80z"/>
<path d="M7797 6224 c-1 -2 -18 -5 -37 -8 -87 -11 -193 -63 -265 -130 -31 -29
-31 -43 1 -81 13 -16 42 -53 63 -82 l38 -52 60 43 c112 82 245 76 274 -11 6
-18 8 -36 5 -41 -2 -4 -60 -9 -128 -10 -68 -1 -133 -4 -146 -7 -150 -29 -233
-115 -233 -242 -1 -133 88 -239 215 -258 111 -17 187 -4 269 46 26 16 49 29
51 29 2 0 2 -13 0 -30 -3 -28 5 -36 31 -30 6 1 15 2 20 2 51 -5 116 -4 120 0
3 3 24 2 46 -2 30 -6 42 -4 46 6 2 7 3 147 1 311 -3 281 -4 301 -25 345 -62
135 -161 196 -325 202 -43 1 -79 1 -81 0z m137 -577 c-2 -17 -9 -34 -16 -39
-7 -4 -9 -8 -4 -8 26 0 -52 -44 -85 -47 -37 -5 -98 11 -100 26 -12 75 5 96 77
98 31 0 57 3 59 5 3 2 20 2 39 0 32 -4 34 -6 30 -35z"/>
<path d="M9495 6211 c-82 -24 -114 -42 -183 -105 -58 -55 -114 -146 -128 -211
-11 -54 -11 -179 1 -225 29 -109 107 -208 210 -265 147 -83 350 -84 509 -4 96
48 94 42 39 152 -26 53 -52 97 -58 97 -5 0 -21 -6 -36 -13 -93 -49 -216 -61
-291 -27 -41 18 -78 51 -78 70 0 3 121 5 270 5 l269 0 7 30 c11 49 12 150 3
201 -18 97 -84 194 -169 250 -93 60 -244 79 -365 45z m208 -234 c30 -19 61
-72 54 -91 -4 -10 -42 -13 -146 -13 -117 0 -141 2 -141 14 0 23 39 73 73 93
38 23 123 22 160 -3z"/>
<path d="M10665 6222 c-35 -5 -99 -36 -127 -60 -37 -33 -43 -32 -40 9 3 28 -1
37 -15 40 -15 4 -196 3 -240 0 -10 -1 -13 -93 -13 -426 l0 -425 33 -1 c100 -3
250 0 254 5 3 3 6 110 7 238 2 222 3 235 25 270 29 48 91 78 162 79 89 1 84
-6 83 129 0 77 -5 125 -12 132 -11 11 -76 17 -117 10z"/>
<path d="M7580 5094 c-114 -50 -140 -185 -53 -276 66 -69 193 -65 266 7 39 40
52 118 29 175 -37 93 -147 135 -242 94z"/>
<path d="M6695 4913 c-73 -16 -71 -16 -119 -36 -21 -9 -42 -17 -47 -17 -5 0
-9 -3 -9 -8 0 -4 -13 -13 -29 -20 -38 -17 -152 -126 -184 -177 -15 -22 -38
-71 -53 -110 -25 -63 -28 -83 -28 -195 0 -133 8 -169 60 -273 74 -146 236
-267 404 -301 61 -12 230 -14 275 -3 103 26 201 78 266 140 45 43 109 128 109
144 0 9 3 7 -125 94 l-90 61 -25 -33 c-75 -97 -142 -137 -245 -146 -185 -16
-323 105 -331 292 -6 162 71 280 212 321 66 19 152 12 218 -16 46 -21 129 -94
152 -135 10 -19 18 -15 121 53 87 58 110 77 106 92 -8 31 -95 132 -148 172
-131 99 -320 138 -490 101z"/>
<path d="M8132 4842 c-27 -2 -45 -9 -49 -18 -3 -9 -6 -55 -7 -102 l-1 -87 -50
-1 c-27 -1 -56 -2 -62 -3 -10 -1 -13 -32 -13 -121 l0 -120 64 0 64 0 0 -147
c-1 -266 19 -328 138 -422 13 -10 95 -40 134 -48 55 -12 245 -3 270 12 5 3 8
58 9 124 l0 119 -88 0 c-97 0 -146 17 -161 55 -4 12 -8 86 -9 165 l0 142 115
0 114 0 0 28 c-1 15 -1 67 0 116 0 49 -2 92 -5 95 -3 3 -54 6 -113 6 l-107 1
0 100 0 101 -30 2 c-16 1 -36 2 -42 2 -7 -1 -35 -1 -62 -2 -27 -1 -53 0 -57 2
-5 2 -28 3 -52 1z"/>
<path d="M7521 4632 c-8 -3 -11 -134 -11 -428 l0 -425 124 2 c69 0 129 -2 134
-5 5 -3 15 1 22 10 10 11 13 109 14 429 1 228 -1 416 -4 416 -14 3 -270 4
-279 1z"/>
<path d="M8735 4613 c9 -37 275 -708 295 -744 12 -22 -26 -96 -62 -123 -33
-23 -95 -34 -160 -25 -27 3 -48 3 -49 0 -4 -24 -4 -233 1 -239 10 -13 72 -23
160 -24 136 -1 229 50 311 169 26 38 55 95 119 238 12 28 35 78 51 113 16 35
29 65 29 67 0 3 13 33 29 67 67 148 161 357 182 408 13 30 25 57 28 60 4 3 7
10 8 15 1 6 3 17 5 25 2 12 -21 14 -147 14 l-149 1 -22 -55 c-13 -30 -39 -100
-60 -155 -20 -55 -42 -113 -49 -130 -7 -16 -21 -51 -30 -77 -10 -27 -21 -48
-24 -48 -3 0 -31 73 -60 163 -30 89 -57 167 -60 172 -3 6 -6 12 -6 15 -2 18
-38 110 -43 111 -4 1 -74 2 -155 3 l-148 1 6 -22z"/>
<path d="M5833 4099 c-86 -25 -140 -136 -106 -218 51 -123 211 -154 300 -58
40 43 51 73 46 127 -9 114 -122 183 -240 149z"/>
</g>
</svg>
